<svg width="61" height="40" viewBox="0 0 61 40" fill="none" xmlns="http://www.w3.org/2000/svg">
<g clip-path="url(#clip0_370_1525)">
<path d="M56.4331 15.5089C56.1031 16.0109 55.9831 16.6152 55.8825 17.245C55.7592 18.0118 55.6291 18.7479 55.3595 19.4697C55.0356 20.3347 54.4912 21.2984 53.5443 22.0528C52.5676 19.3976 51.145 16.9306 49.3386 14.7593C50.4671 14.3058 51.5746 14.3127 52.4854 14.4638C53.2418 14.5898 53.9408 14.8446 54.6631 15.1204C55.2554 15.348 55.8357 15.5457 56.4329 15.5089H56.4331ZM45.4437 4.45794L45.4433 4.45855L45.4441 4.45834C45.4075 5.0587 45.6039 5.64229 45.8301 6.23815C46.1045 6.96447 46.3579 7.66727 46.4834 8.42795C46.6334 9.34443 46.6403 10.4597 46.1881 11.5956C44.0256 9.78162 41.5695 8.35434 38.9269 7.37589C39.6786 6.41544 40.6414 5.86477 41.5054 5.5376C42.2231 5.26646 42.9551 5.13579 43.718 5.01147C44.3439 4.91045 44.9447 4.79022 45.4437 4.45794ZM54.7013 26.391C55.8957 26.5687 56.8461 27.129 57.5563 27.7148C58.1486 28.2044 58.627 28.7765 59.1157 29.3789C59.5152 29.8732 59.9196 30.3363 60.4548 30.6048H55.0626C55.0612 29.1925 54.9402 27.7828 54.7013 26.391ZM15.4213 4.45834L15.4217 4.45875V4.45794C15.9207 4.79001 16.5216 4.91025 17.1476 5.01167C17.9101 5.13559 18.6421 5.26646 19.3599 5.53739C20.2239 5.86456 21.1866 6.41544 21.9382 7.37568C19.2955 8.35406 16.8395 9.78142 14.6771 11.5956C14.2249 10.4597 14.2314 9.34443 14.3821 8.42774C14.5073 7.66707 14.7607 6.96427 15.035 6.23774C15.2611 5.64209 15.4579 5.0587 15.4213 4.45834ZM4.43238 15.5093L4.43299 15.5096L4.43278 15.5091C5.02977 15.5457 5.61008 15.348 6.2026 15.1206C6.92484 14.8446 7.6237 14.5898 8.37989 14.4638C9.29083 14.3129 10.3984 14.306 11.5269 14.7595C9.72067 16.931 8.29819 19.3979 7.32134 22.053C6.37421 21.2984 5.83009 20.3349 5.50598 19.4697C5.23636 18.7479 5.10643 18.0118 4.983 17.245C4.88235 16.6152 4.76259 16.0111 4.43238 15.5093ZM0.410645 30.605C0.946021 30.3365 1.35005 29.8736 1.75 29.3791C2.238 28.7769 2.71685 28.2048 3.30896 27.7155C4.01941 27.1292 4.96918 26.5689 6.16376 26.3914C5.92501 27.7831 5.8044 29.1927 5.80325 30.605H0.410645ZM30.4328 0.413086V0.413699L30.4332 0.413086C30.7 0.95169 31.1606 1.358 31.6524 1.76062C32.2512 2.25138 32.8204 2.73272 33.3069 3.32817C33.8932 4.04713 34.4537 5.00983 34.6266 6.222C33.2414 5.98283 31.8385 5.86264 30.433 5.86272C29.0032 5.86272 27.6024 5.98664 26.2391 6.222C26.4119 5.01004 26.9725 4.04713 27.5587 3.32858C28.0457 2.73272 28.6146 2.25138 29.2134 1.76021C29.7051 1.3582 30.1656 0.95169 30.4328 0.413086Z" fill="#FAB60F"/>
<path d="M25.4238 30.6099L27.277 30.6046C27.5204 29.0305 27.0444 27.8185 25.4612 28.1078C24.1269 28.3514 22.6938 29.6844 21.8276 30.6046L24.2709 30.5937C24.5432 30.4138 25.0761 30.2083 25.2949 30.3612C25.3766 30.4185 25.4195 30.4999 25.4238 30.6099Z" fill="#D52736"/>
<path d="M33.7577 30.6046H36.0696C36.1796 27.859 35.7398 25.0239 34.4706 22.5707C33.3161 20.3388 31.4078 18.8218 28.9373 18.4551C25.3307 17.92 21.6917 19.4555 18.615 21.652C15.2653 24.0436 12.5004 27.2918 10.084 30.6048L13.1381 30.6003C15.8875 26.6812 22.2114 20.7314 26.8635 20.6926C28.3458 20.6803 29.8533 21.0302 30.9678 22.0301C31.7752 22.7548 32.7543 24.1618 32.7063 25.3038C32.6778 25.9809 32.0802 26.1886 31.5072 25.9786C31.0621 25.8159 30.7478 25.4067 30.4362 24.9765C29.4241 23.5788 27.8452 22.8948 26.1134 23.1333C24.0477 23.4173 21.4873 25.0302 19.8359 26.497C18.4119 27.7623 17.1045 29.1467 15.8713 30.6048H19.1547C20.3582 29.1436 21.6291 27.8975 23.2626 26.8743C23.7795 26.5506 24.4162 26.2081 25.0853 25.9766C26.7734 25.3932 28.4531 25.541 29.1992 27.6546C29.4922 28.4856 29.5353 29.2146 29.4499 30.5502V30.6048H31.6825L31.6882 30.5361C31.6898 29.8047 31.6739 29.3117 31.7396 28.5868C31.7959 27.9619 31.9891 27.3145 32.5662 27.2376C33.7925 26.9792 33.7337 29.7229 33.7577 30.6048V30.6046Z" fill="#D52736"/>
<path d="M38.5007 30.6049H40.8319C40.9448 28.0576 40.7276 25.0397 39.908 22.4046C39.7499 21.8926 39.5642 21.3898 39.3515 20.8983C38.8553 19.7596 38.1876 18.7288 37.3917 17.7761C36.5068 16.7179 35.4528 15.7663 34.2643 15.0168C33.9119 14.7944 33.5481 14.5908 33.1744 14.4069V14.4065C32.7991 14.2218 32.4137 14.0587 32.0201 13.918L32.0185 13.9173C27.479 12.2964 22.8878 13.4491 19.0362 15.5558C18.2947 15.9625 17.5734 16.4054 16.8748 16.8827C16.2015 17.3424 15.5481 17.8308 14.9163 18.3466L14.9149 18.3476C14.0141 19.0833 13.162 19.8772 12.3639 20.7243C12.1855 20.9143 12.0095 21.1077 11.8382 21.303C11.3801 21.8255 10.6742 22.5577 10.8836 23.3147C11.0495 23.9151 11.8199 23.738 12.0881 23.5315C12.5001 23.3092 12.9523 22.9569 13.3397 22.6274C13.8636 22.1813 14.3588 21.7007 14.8779 21.2484C16.9769 19.4183 19.165 18.0072 21.3201 17.052C21.7823 16.8469 22.2522 16.6598 22.7288 16.4911C23.1867 16.329 23.6512 16.1861 24.121 16.063L24.123 16.0624C28.1334 15.0154 32.491 15.6937 35.2811 18.9823C37.9692 22.1504 38.4597 26.3909 38.5007 30.6051V30.6049ZM9.57718 27.024C9.82769 26.7888 10.0829 26.4821 10.3488 26.1427C10.7209 25.6679 10.7583 25.2082 10.6111 24.8765C10.558 24.7556 10.478 24.6485 10.3773 24.5635C10.2799 24.4813 10.1646 24.4235 10.0408 24.3946C9.73761 24.3248 9.37486 24.434 9.06681 24.8109C8.71871 25.2368 8.23782 25.9654 8.13961 26.6099C8.12078 26.725 8.11709 26.8421 8.12863 26.9582C8.14083 27.0653 8.1693 27.1671 8.21708 27.2602L8.21749 27.261C8.29598 27.4123 8.42835 27.4921 8.60464 27.4988C8.64144 27.5 8.68129 27.4984 8.72359 27.4937C8.76486 27.4892 8.8096 27.4808 8.85718 27.4698V27.4702L8.85962 27.4696C9.09711 27.4123 9.3346 27.2516 9.57718 27.0238V27.024Z" fill="#D52736"/>
<path d="M44.3317 30.6057L44.3482 30.6053H44.3565C44.6005 30.6188 45.0239 30.506 45.2681 30.0917C45.3167 30.0089 45.3586 29.9142 45.3901 29.8068C45.4226 29.6974 45.445 29.5733 45.4543 29.4341L45.4562 29.4054C45.6414 22.8947 43.6585 17.5046 40.2919 13.843C39.644 13.1373 38.9363 12.4897 38.1768 11.9073C37.4254 11.3315 36.6247 10.8239 35.784 10.3905H35.7838L35.7704 10.3839L35.77 10.3835C32.9404 8.92926 29.731 8.37082 26.5812 8.63931C25.353 8.74365 24.1385 8.97303 22.9563 9.32391L22.948 9.32657C19.7085 10.2903 16.6939 12.2032 14.2372 14.713C13.5204 15.4451 12.8537 16.2251 12.2417 17.0478C13.9645 15.553 15.8128 14.2419 17.7461 13.2001C18.1771 12.9674 18.6148 12.7476 19.0586 12.5408C19.4977 12.3362 19.943 12.1456 20.3939 11.9691L20.3952 11.9687L20.3964 11.9681C22.1044 11.3004 23.7882 10.8747 25.4724 10.6845C27.1564 10.4944 28.8416 10.5393 30.5531 10.8129C31.771 11.008 32.9597 11.3286 34.0307 11.7773C34.2383 11.8642 34.4428 11.9566 34.6429 12.0544C34.8405 12.1507 35.0351 12.2529 35.2257 12.3611H35.2259L35.2289 12.3627L35.2287 12.3629C38.9991 14.4392 41.6184 18.6994 42.7722 23.5096C43.2251 25.4008 43.4478 27.3404 43.4354 29.2856V29.286L43.4348 29.3421C43.4541 29.8629 43.6316 30.2988 43.9358 30.4949C43.9924 30.5313 44.0538 30.5599 44.119 30.5783H44.1194C44.1861 30.5974 44.2569 30.607 44.3317 30.6057Z" fill="#D52736"/>
<path d="M37.5903 8.90625C46.6555 11.9172 53.2067 20.4901 53.2449 30.605H48.7594C49.0563 21.7694 45.2216 13.794 37.5903 8.90625Z" fill="#FAB60F"/>
<path d="M11.2702 37.6998H9.45582L9.00645 39.2894H7.56055L9.47391 33.2012H11.3059L13.2732 39.2894H11.7643L11.2702 37.6998ZM9.6624 36.6698H11.0546C10.6894 35.4803 10.4528 34.6644 10.345 34.2217H10.3269L10.0396 35.3781L9.6624 36.6698ZM17.9346 37.6998H16.1201L15.6711 39.2894H14.225L16.138 33.2012H17.9706L19.9377 39.2894H18.4287L17.9346 37.6998ZM16.3267 36.6698H17.7189C17.3537 35.4803 17.117 34.6644 17.0092 34.2217H16.9914L16.704 35.3781L16.3267 36.6698ZM21.3203 39.2624V33.2825C21.9191 33.1922 22.5598 33.147 23.2424 33.147C24.533 33.147 25.4596 33.4179 26.0212 33.9614C26.5824 34.5049 26.8624 35.2155 26.8624 36.0917C26.8624 37.1276 26.5435 37.93 25.9043 38.4991C25.265 39.0679 24.2786 39.3526 22.9462 39.3526C22.3295 39.3526 21.7874 39.3225 21.3203 39.2624ZM22.7125 34.2761V38.2416C22.7904 38.2596 22.9582 38.2686 23.2156 38.2686C23.9071 38.2686 24.4431 38.085 24.8219 37.7192C25.2007 37.3532 25.3892 36.8295 25.3892 36.1459C25.3892 35.5196 25.2172 35.0423 24.8713 34.7141C24.5255 34.3859 24.0271 34.2217 23.3772 34.2217C23.1048 34.2217 22.8831 34.2401 22.7125 34.2761ZM28.353 33.2012H29.7452V35.5406H32.1255V33.2014H33.5179V39.2894H32.1255V36.7512H29.7452V39.2894H28.353V33.2012ZM38.5652 37.6998H36.7509L36.3017 39.2894H34.8556L36.769 33.2012H38.6012L40.5685 39.2894H39.0593L38.5652 37.6998ZM36.9575 36.6698H38.3497C37.9845 35.4803 37.7478 34.6644 37.6401 34.2217H37.6222L37.3346 35.3781L36.9575 36.6698ZM45.2297 37.6998H43.4151L42.966 39.2894H41.5199L43.433 33.2012H45.2655L47.2325 39.2894H45.7238L45.2297 37.6998ZM43.6217 36.6698H45.0139C44.6487 35.4803 44.4121 34.6644 44.3043 34.2217H44.2864L43.9989 35.3781L43.6217 36.6698ZM48.6152 39.2892V33.2825C49.1245 33.1922 49.7502 33.147 50.4928 33.147C51.409 33.147 52.0676 33.2991 52.4687 33.6032C52.8699 33.9072 53.0706 34.3424 53.0706 34.9084C53.0706 35.2458 52.9702 35.5498 52.7681 35.8224C52.5715 36.0908 52.2978 36.2921 51.9838 36.3988V36.4348C52.361 36.5765 52.6334 36.9499 52.8012 37.555C53.1094 38.6449 53.277 39.2231 53.304 39.2894H51.8848C51.7652 39.0637 51.6215 38.5909 51.4537 37.8711C51.3699 37.51 51.2561 37.2571 51.1125 37.1125C50.9688 36.9679 50.7382 36.8957 50.4208 36.8957H49.9897V39.2894H48.6152V39.2892ZM49.9897 34.2217V35.893H50.5645C50.9118 35.893 51.1857 35.8132 51.3864 35.6551C51.5871 35.4971 51.6873 35.2848 51.6873 35.0168C51.6873 34.7489 51.5975 34.5409 51.4163 34.3951C51.2353 34.2489 50.9777 34.1767 50.6455 34.1767C50.3191 34.1767 50.1005 34.1919 49.9897 34.2217Z" fill="#D52736"/>
</g>
<defs>
<clipPath id="clip0_370_1525">
<rect width="61" height="39.5594" fill="white"/>
</clipPath>
</defs>
</svg>
