<svg width="45" height="45" viewBox="0 0 45 45" fill="none" xmlns="http://www.w3.org/2000/svg">
<circle cx="22.5" cy="22.5" r="22.5" fill="#2396B5"/>
<path d="M25.346 23.101C26.226 23.101 27.087 23.247 27.901 23.529C27.9867 23.5577 28.0659 23.6031 28.1339 23.6628C28.2019 23.7224 28.2574 23.7949 28.297 23.8762C28.3367 23.9574 28.3597 24.0458 28.3649 24.1361C28.37 24.2263 28.3571 24.3167 28.327 24.402C28.2634 24.5747 28.1343 24.7153 27.9677 24.7936C27.8012 24.8718 27.6105 24.8813 27.437 24.82C26.7647 24.5875 26.0583 24.4692 25.347 24.47C21.88 24.47 19.071 27.227 19.071 30.629C19.071 30.837 19.081 31.043 19.101 31.248C19.1094 31.3382 19.0999 31.4291 19.073 31.5156C19.0462 31.6021 19.0025 31.6825 18.9445 31.7521C18.8866 31.8217 18.8154 31.8791 18.7352 31.9211C18.655 31.9632 18.5672 31.9889 18.477 31.997C18.2945 32.0163 18.1117 31.9626 17.9687 31.8475C17.8257 31.7325 17.7341 31.5654 17.714 31.383C17.6886 31.1325 17.6759 30.8808 17.676 30.629C17.676 26.472 21.11 23.101 25.346 23.101ZM29.492 24.47C29.676 24.4718 29.8522 24.5453 29.9829 24.6749C30.1136 24.8045 30.1886 24.9799 30.192 25.164L30.192 27.423L32.306 27.418C32.4726 27.421 32.6328 27.4827 32.7583 27.5923C32.8838 27.7019 32.9666 27.8523 32.992 28.017L33 28.119C33.0007 28.2092 32.9833 28.2985 32.9488 28.3819C32.9144 28.4652 32.8636 28.5408 32.7995 28.6042C32.7354 28.6676 32.6592 28.7175 32.5755 28.7509C32.4917 28.7844 32.4021 28.8007 32.312 28.799L30.192 28.804L30.192 31.174C30.1939 31.2642 30.1776 31.3538 30.1442 31.4376C30.1108 31.5214 30.0609 31.5976 29.9975 31.6618C29.9341 31.726 29.8584 31.7767 29.775 31.8111C29.6916 31.8455 29.6022 31.8628 29.512 31.862C29.3279 31.8602 29.1518 31.7867 29.0211 31.6571C28.8904 31.5275 28.8154 31.352 28.812 31.168L28.811 28.807L26.301 28.814C26.1347 28.8108 25.9749 28.7491 25.8496 28.6397C25.7243 28.5303 25.6416 28.3803 25.616 28.216L25.608 28.113C25.6073 28.0229 25.6247 27.9336 25.659 27.8503C25.6934 27.7671 25.7441 27.6915 25.8081 27.6281C25.8721 27.5648 25.9482 27.5149 26.0318 27.4813C26.1154 27.4478 26.2049 27.4314 26.295 27.433L28.811 27.426L28.811 25.157C28.8094 25.0668 28.8259 24.9773 28.8594 24.8936C28.893 24.8099 28.943 24.7338 29.0065 24.6698C29.07 24.6057 29.1456 24.5551 29.229 24.5207C29.3124 24.4864 29.4018 24.4692 29.492 24.47ZM20.671 20.22C20.7617 20.2191 20.8517 20.236 20.9358 20.2699C21.0199 20.3038 21.0966 20.354 21.1613 20.4175C21.226 20.481 21.2776 20.5567 21.3131 20.6402C21.3485 20.7236 21.3672 20.8133 21.368 20.904C21.3673 20.9948 21.3488 21.0845 21.3134 21.1681C21.278 21.2517 21.2264 21.3275 21.1617 21.3911C21.0969 21.4548 21.0202 21.505 20.936 21.539C20.8518 21.5729 20.7618 21.5899 20.671 21.589C17.204 21.589 14.395 24.346 14.395 27.748C14.395 27.955 14.405 28.162 14.425 28.366C14.4335 28.4563 14.4241 28.5473 14.3973 28.6339C14.3706 28.7206 14.3269 28.801 14.2689 28.8707C14.2109 28.9404 14.1397 28.998 14.0594 29.0401C13.9791 29.0821 13.8913 29.108 13.801 29.116C13.6185 29.1353 13.4357 29.0816 13.2927 28.9665C13.1497 28.8515 13.0581 28.6844 13.038 28.502C13.0126 28.2515 12.9999 27.9998 13 27.748C13 23.59 16.435 20.22 20.671 20.22ZM25.609 14.966C27.792 14.966 29.561 16.703 29.561 18.844C29.561 20.986 27.791 22.722 25.609 22.722C23.427 22.722 21.658 20.986 21.658 18.844C21.658 16.703 23.427 14.966 25.609 14.966ZM25.609 16.335C24.197 16.335 23.052 17.458 23.052 18.845C23.052 20.23 24.197 21.353 25.609 21.353C27.021 21.353 28.166 20.23 28.166 18.844C28.166 17.458 27.021 16.335 25.609 16.335ZM21.025 12C22.27 12 23.42 12.57 24.163 13.52C24.397 13.82 24.339 14.25 24.033 14.48C23.8857 14.5903 23.7012 14.6388 23.5187 14.6151C23.3362 14.5914 23.1702 14.4973 23.056 14.353C22.8147 14.0451 22.5064 13.7965 22.1544 13.6259C21.8024 13.4554 21.4161 13.3675 21.025 13.369C19.613 13.369 18.468 14.492 18.468 15.878C18.468 17.09 19.35 18.123 20.549 18.344C20.927 18.414 21.177 18.771 21.106 19.143C21.0695 19.323 20.9634 19.4814 20.8108 19.5836C20.6582 19.6859 20.4714 19.7238 20.291 19.689C18.436 19.347 17.073 17.751 17.073 15.878C17.073 13.736 18.843 12 21.025 12Z" fill="white"/>
</svg>
