<svg width="45" height="45" viewBox="0 0 45 45" fill="none" xmlns="http://www.w3.org/2000/svg">
<circle cx="22.5" cy="22.5" r="22.5" fill="#F3821C"/>
<path d="M27.5455 20.4545H30.2727M30.2727 20.4545H33M30.2727 20.4545V17.7273M30.2727 20.4545V23.1818M13 29.5455V28.6364C13 26.9486 13.6705 25.33 14.8639 24.1366C16.0573 22.9432 17.6759 22.2727 19.3636 22.2727M19.3636 22.2727C21.0514 22.2727 22.67 22.9432 23.8634 24.1366C25.0568 25.33 25.7273 26.9486 25.7273 28.6364V29.5455M19.3636 22.2727C20.3281 22.2727 21.253 21.8896 21.9349 21.2077C22.6169 20.5257 23 19.6008 23 18.6364C23 17.6719 22.6169 16.747 21.9349 16.0651C21.253 15.3831 20.3281 15 19.3636 15C18.3992 15 17.4743 15.3831 16.7923 16.0651C16.1104 16.747 15.7273 17.6719 15.7273 18.6364C15.7273 19.6008 16.1104 20.5257 16.7923 21.2077C17.4743 21.8896 18.3992 22.2727 19.3636 22.2727Z" stroke="white" stroke-width="2" stroke-linecap="round" stroke-linejoin="round"/>
</svg>
