<svg width="36" height="33" viewBox="0 0 36 33" fill="none" xmlns="http://www.w3.org/2000/svg">
<path d="M35.6382 7.497L31.3632 4.203C31.0727 4.01651 30.7569 3.87283 30.4254 3.7764C30.0953 3.66956 29.7516 3.61016 29.4048 3.6H17.1L18.5418 12.6H29.4048C29.7 12.6 30.069 12.5334 30.4236 12.4236C30.7782 12.3138 31.1202 12.1626 31.3614 11.9988L35.6364 8.7012C35.8794 8.5374 36 8.3196 36 8.1C36 7.8804 35.8794 7.6626 35.6382 7.497ZM15.3 0H13.5C13.2613 0 13.0324 0.0948211 12.8636 0.263604C12.6948 0.432387 12.6 0.661305 12.6 0.9V7.2H6.5952C6.2964 7.2 5.9292 7.2666 5.5746 7.3782C5.2182 7.4862 4.878 7.6356 4.6368 7.803L0.3618 11.097C0.1188 11.2608 0 11.4804 0 11.7C0 11.9178 0.1188 12.1356 0.3618 12.303L4.6368 15.6006C4.878 15.7644 5.2182 15.9156 5.5746 16.0236C5.9292 16.1334 6.2964 16.2 6.5952 16.2H12.6V31.5C12.6 31.7387 12.6948 31.9676 12.8636 32.1364C13.0324 32.3052 13.2613 32.4 13.5 32.4H15.3C15.5387 32.4 15.7676 32.3052 15.9364 32.1364C16.1052 31.9676 16.2 31.7387 16.2 31.5V0.9C16.2 0.661305 16.1052 0.432387 15.9364 0.263604C15.7676 0.0948211 15.5387 0 15.3 0Z" fill="black"/>
</svg>
